<svg id="Layer_1" data-name="Layer 1" xmlns="http://www.w3.org/2000/svg" viewBox="0 0 3000 3000"><defs><style>.cls-1{fill:#3a5896;}.cls-2{fill:#fefefe;}</style></defs><title>logofb</title><path class="cls-1" d="M0,1527.59v-56.23a136.67,136.67,0,0,0,0-35.61v-9.37c2.37-11,1.48-22.32,1.56-33.38.43-57.6,8.84-114.19,19-170.67A1444.67,1444.67,0,0,1,73,1019.68a1483.62,1483.62,0,0,1,98.68-228.32A1451.46,1451.46,0,0,1,333.5,550.1C358.94,519.33,385.91,490,413,460.61c22.28-24.15,46.15-46.55,70.06-68.84A1483.16,1483.16,0,0,1,640.84,264.35c69.09-48.64,142.05-90.54,218.32-126.71,44-20.86,89.08-39.17,134.92-55.68,47.31-17,95.48-31.13,144.15-43.51,49-12.47,98.77-21,148.66-28.64,33.88-5.21,68.08-7.32,102.4-8.22,13-.34,26.08.6,39-1.59h7.5a136.68,136.68,0,0,0,35.61,0h56.23a136.68,136.68,0,0,0,35.61,0h7.5c11.66,2.32,23.58,1.48,35.26,1.56,59.51.41,117.87,9.67,176.2,20.18,66.45,12,131.47,29.4,195.42,50.68a1450.15,1450.15,0,0,1,226,97.14c77.47,41.41,150.56,89.51,219.93,143.57,65,50.63,124.2,107.32,180.66,166.89,53.49,56.43,101.36,117.58,144.85,182.14,42.11,62.51,79.65,127.62,111.68,195.78a1517.93,1517.93,0,0,1,91.52,249.21c16.17,59.67,28.11,120.19,36.92,181.3a918.5,918.5,0,0,1,9.22,107c1.31,49.62,1.91,99.23,1.46,148.84-.29,32.73-.46,65.54-3,98.15-3.37,42.85-9.92,85.35-17.49,127.71a1466,1466,0,0,1-56.73,218c-24.55,71.58-54,141.07-89.4,208a1514.4,1514.4,0,0,1-162.12,245.69c-45.67,56.42-95.64,108.76-148.2,158.55a1443.73,1443.73,0,0,1-216.77,168.77,1491.11,1491.11,0,0,1-526.69,208.54c-42,7.76-84.1,14.62-126.73,17.89-68.22,5.24-136.56,4.65-204.87,4.15-30.22-.22-60.52-.51-90.65-2.89-35.08-2.77-70-7.35-104.75-13.18a1503.93,1503.93,0,0,1-248.07-63.26,1469.73,1469.73,0,0,1-411.41-221q-53.55-40.9-103.23-86.48c-33-30.18-64.5-61.78-95.16-94.17-43.76-46.23-83.66-95.81-120.83-147.54A1494.56,1494.56,0,0,1,175,2213.33,1473.56,1473.56,0,0,1,14.42,1740.72c-7.08-44.41-11.87-88.86-12.84-133.83-.25-11.39.7-23-1.58-34.31v-9.37A136.67,136.67,0,0,0,0,1527.59Z"/><path class="cls-2" d="M1622.47,1289.46c3.06,2.4,6.62,1.15,9.91,1.15q128.82.12,257.64.2c3.54,0,9.44-3.07,9.95,4.5.59,3.12,1.4,6.24-.52,9.22a7.29,7.29,0,0,0-1.4,5.76c.64,3.12,1.48,6.25-.52,9.22a6.91,6.91,0,0,0-1.4,5.77c.66,3.12,1.64,6.26-.58,9.2-4.48,20-5.93,40.49-8.75,60.74-4.68,33.53-8.74,67.15-13.06,100.73.56,3.06,1.37,6.12-.53,9a7.73,7.73,0,0,0-1.46,5.92c.77,3.12,1.48,6.25-.44,9.24-1.58,1.63-1.76,3.63-1.47,5.74.8,3.13,1.56,6.25-.46,9.24-1.64,1.63-1.71,3.64-1.44,5.75.77,3.13,1.72,6.27-.54,9.23-1.32,1-1.42,2.45-1.17,4,.54,3,1.39,6.11-.56,9-.91,6.66-5.5,6.72-10.88,6.71q-111.27-.19-222.54,0c-3.26,0-6.83-1.35-9.82,1.24,1.1,3.36.55,6.82.55,10.23q0,350.25,0,700.5c0,3.62,1.23,7.49-1.18,10.89H1330c-2.51-2.67-1.29-6-1.29-8.94q-.1-352.2,0-704.4c0-2.78-.49-5.63.59-8.34-3.05-2.42-6.61-1.17-9.9-1.17-73.38-.09-146.75-.22-220.13.15-8.46,0-10.19-2.35-10.16-10.4q.45-129.27-.05-258.53c0-9.12,3-10.48,11.05-10.45,73.06.27,146.13.17,219.19.1,3.31,0,6.86,1.14,10-1.08-.88-2.09-.56-4.3-.56-6.47q0-110.77,0-221.53c0-2.7-.94-5.64,1.16-8.08,1.8-3.64,1.42-7.54,1.31-11.4-.71-4.23-1.67-8.47.54-12.57l1.25-8.11c-.51-3.11-1.58-6.26.64-9.18,5-23.43,8.83-47.13,16.67-69.9,26.82-77.91,70.52-142.86,142.83-185.7,38.32-22.7,80-35.84,123.91-42.57,1.83-.28,3.78,0,5.19-1.62,3.54-2.28,7.3-1.21,11-.75a7.56,7.56,0,0,0,5.76-1.36c3.68-1.73,7.43-1.27,11.19-.33a18,18,0,0,0,9.88-1.33c1.46-1.63,3.43-1.22,5.25-1.22q45.81,0,91.62,0c1.82,0,3.78-.41,5.26,1.2a56,56,0,0,0,17.51,1.21c8.7-.56,17.41-1.57,26,.57,3.64,1.78,7.51,1.67,11.39,1.41,6.23-.75,12.46-1.63,18.61.48,2.33,1.76,5,1.53,7.67,1.31,5.59-.51,11.2-1.76,16.67.67,2.31,1.8,5,1.57,7.65,1.34,3.78-.94,7.55-1.5,11.24.39a11.15,11.15,0,0,0,7.52,1.44c3.75-.81,7.49-1.54,11.1.51,13.39,3.82,13.4,3.82,13.39,18.6q-.11,117-.22,234.05c-1.82,1.74-4.11,1.15-6.22,1.15q-70.46,0-140.92,0a11.87,11.87,0,0,1-4.59-.59,22.94,22.94,0,0,0-11.6,1.4c-2.93,2-6,1.1-9,.41-20.9,1.61-41.15,6-60.2,14.88-35.78,16.6-49.53,47.52-54,84.3.84,2.43,1.43,4.85-.42,7.13-2.49,10-2,20.2-1.55,30.38,1.15,2,.77,4.27.77,6.43q0,83.9,0,167.81C1623,1285.77,1623.22,1287.66,1622.47,1289.46Z"/></svg>