<svg id="Layer_1" data-name="Layer 1" xmlns="http://www.w3.org/2000/svg" viewBox="0 0 3000 3000"><defs><style>.cls-1{fill:#3b5998;}.cls-2{fill:#fefefe;}</style></defs><title>logomess</title><path class="cls-1" d="M560.28,3000c0-165.47-1.1-322.2.83-478.88.44-35.89-10.49-58.29-38.49-81.34-351.6-289.41-538-659.6-515.2-1118,21.43-430.68,225.24-769.5,569-1023.91,608.79-450.58,1497.24-383,2026.3,155.37,281,286,419.07,632.53,387.27,1033.92-35.41,447-256.82,791.73-628,1035.54-381.86,250.82-801,311.79-1244.56,209-33.95-7.87-60.36-4.44-90.7,12.71-137.84,77.92-277.14,153.26-416,229.43C596.8,2981.47,582.53,2988.48,560.28,3000Z"/><path class="cls-2" d="M558.16,1843.94c6.86-20.45,22.38-32,34.87-45.34q361.63-385.45,723-771.16c22.09-23.71,32.21-19.8,51.72.87,109.85,116.34,221.89,230.64,331,347.63,23.76,25.46,40,30.39,71.74,12.41,206.53-116.94,414.37-231.59,622-346.52,13.48-7.46,25.6-19.43,50.44-18.91-80.08,85.8-156.2,167.76-232.77,249.29-175.93,187.34-352.7,373.88-527.47,562.3-26.95,29.05-40.81,33-69.46,1.07-103.67-115.41-211.62-227-315.84-341.9-23.41-25.82-39.63-26-68.82-9.72-205.9,114.77-412.89,227.59-619.86,340.42C594,1832.4,580.69,1846.07,558.16,1843.94Z"/></svg>