<svg id="Layer_1" data-name="Layer 1" xmlns="http://www.w3.org/2000/svg" viewBox="0 0 3000 3000"><defs><style>.cls-1{fill:#fff;}</style></defs><title>webIconEvenement</title><g id="event"><path class="cls-1" d="M2995.93,1319.26c-48.13-102.27-95.15-205.1-142.46-307.77q-76.5-166.1-152.9-332.31Q2651.19,571.81,2602,464.36c-3.91-8.58-6.86-12.3-18.6-8.84-46.72,13.68-94.14,10.77-140-3.62-53.73-16.89-99.4-47-133.18-93.28-5-6.86-9.73-10.44-20.47-5.07-38.14,19-77.36,35.68-116.1,53.46q-196.52,90.26-393,180.75c-76.51,35.23-152.82,70.76-229.29,106Q1354.78,784.45,1158,874.92q-118.45,54.58-236.71,109.5Q766.69,1055.89,612,1127.29,446.78,1203.63,281.45,1280,198.74,1318.05,115.5,1355c-10,4.47-11.52,11.26-9,20.47,11.74,42.43,7.57,84.3-3.84,126.05-15.81,57.75-48.1,104.21-95.71,140.3-5.93,4.51-9.4,9-5,17.78,11.11,22,20.65,44.78,31,67.18q54.92,119.45,109.95,238.87c43.77,95,87.28,190.18,131.24,285.14,42.39,91.57,85.57,182.73,127.4,274.55,5.11,11.26,10.07,12.75,20.21,9.88,36.16-10.29,72.7-8.35,108.79-.6,68.08,14.58,122.14,51.23,163.34,107.15,2.09,2.83,5.29,4.81,7.94,7.23a65.13,65.13,0,0,1,7-4.29q93.39-43,186.83-85.86c55-25.43,109.76-51.41,164.87-76.73q176.72-81.15,353.67-161.92c71-32.66,141.75-66.07,212.74-98.88q163.69-75.61,327.61-150.89c68.79-31.73,137.35-63.9,206.18-95.59,106.44-49,213.11-97.68,319.55-146.78,55.59-25.61,110.77-52.2,166.43-77.66,80.23-36.72,160.73-72.78,241-109.28,4-1.83,6.6-3.69,5-11.07-7.16-33.22-11.67-66.25-6.52-101.19,10.74-72.7,43-131.65,101.19-176C3000.74,1342.86,3003.31,1335,2995.93,1319.26ZM2723.2,1542.81c-30.91,42-76.88,61.78-121.51,83.22-43.84,21.06-88.62,40.19-132.8,60.55q-165.54,76.17-331,152.71Q1980,1912,1822,1984.66t-316.13,145.67q-141.49,65.21-282.91,130.42Q1077.11,2328,931.3,2395.33c-36.54,16.81-73.11,33.55-109.84,49.85-23.64,10.48-48.51,15.25-72.63,12.9-84.19,6.49-168.67-57.16-198.12-132.84-23-59.17-53-115.65-79.67-173.4q-70.63-153.12-141-306.32c-27.59-60-57.83-119-81.84-180.49-26.36-67.48-16-132.84,25.28-193.13,28.15-41.09,70.24-62.64,113.3-82.69,58.35-27.18,117.33-53.05,175.79-79.94q159.78-73.49,319.26-147.46c70.35-32.55,140.56-65.4,210.95-97.87,110.92-51.12,222-101.82,332.86-153q179.07-82.71,357.92-166c78.44-36.31,156.59-73.34,235.63-108.23,58.12-25.65,113.68-57.6,174.08-77.18,79.23-25.73,149.36-4.44,209.08,51.75,30.27,28.45,44.85,67.26,62.37,103.76,19.54,40.68,37.54,82.1,56.37,123.15q76.62,167,153.38,334c25.87,56.3,53.95,111.7,77,169.12C2780.17,1412.69,2769,1480.55,2723.2,1542.81Z"/><path class="cls-1" d="M2322.26,1414.37q-73.93-160.39-147.38-321-83.33-181.14-166.73-362.24c-12.23-26.73-11.78-27.07-32.7-17.3-61,28.41-121.92,57-183.06,85.19q-171.3,78.91-342.75,157.34Q1304.86,1023,1160.22,1090q-169.4,78.24-338.79,156.55-108.89,50.33-217.73,100.78c-30.05,13.91-29.68,13.76-15.32,44.55q53.24,114.37,106,229,79.8,172.86,159.57,345.69,30.54,66.16,61,132.43,44.74,97.37,89.41,194.81c3.36,7.31,6.38,8.31,13.87,4.47,17-8.72,34.86-15.92,52.31-23.94q116.1-53.41,232.2-106.93,167-77,334-154.17c75.2-34.86,150.1-70.35,225.34-105.06q188.36-87,377-173.29c59.43-27.29,118.93-54.51,178.21-82.17,4.18-1.94,11.52-1.64,11.3-10.1-1.86-3.88-4-8.24-6-12.6C2389,1558.14,2355.44,1486.37,2322.26,1414.37Zm-1214.35,513c-14.06,6.93-28.6,12.83-42.47,20.06-11.89,6.23-18.6,3.43-24.23-8.72-19.2-41.38-39.48-82.28-58.68-123.63-19.76-42.54-38.77-85.42-58.12-128.14-7-15.32-14-30.65-20.88-46-3.5-7.9-7.42-11.89-16.81-6.41-11.89,6.9-24.61,12.49-37.21,18.16-9.54,4.29-16.37,2.05-20.69-8.57-5.22-12.83-11.82-25.09-17.9-37.58-5.26-10.78-3.88-19.09,7.9-24.57,56.11-26,112.26-51.86,168.18-78.33,12.45-5.85,19.54-1,24,9.54,6.79,15.88,17.49,30.31,19.39,48.13.56,5.48-.26,9.47-6.75,11-4.55,1.08-8.72,3.84-12.9,6.15-11.86,6.56-31.47,7-34.56,18.87-2.61,10,9,23.75,14.54,35.72,41.76,90,83.33,180,125.61,269.78C1122.26,1915.38,1118.46,1922.13,1107.91,1927.35Zm160.32-74.12c-15.77,5.78-29.57,15.7-45.75,21-10.59,3.43-16.63-.56-20.47-8.8q-77.46-167.33-154.43-335c-3.77-8.17-5.67-17.45-10.66-24.76-10.77-15.73-4.14-23.19,10.7-29.53,15.88-6.79,31.21-15,42.43-20.36,11.93-1,15.81,1.16,19.05,8.2,25.54,55.66,51.9,111,77.7,166.47,19.72,42.47,39.11,85.12,58.53,127.73,10.92,24,21.29,48.32,32.44,72.22C1283.25,1842.16,1279.71,1849,1268.22,1853.23Zm144.51-62.37c-13.09,5-26.25,9.84-39.15,7.27-47.39,5.29-80.35-34.93-100.07-76.21q-32.21-67.39-61.89-135.9c-12.75-29.6-29-57.6-36.35-89.78-9.88-43.51,4.18-76.65,39.93-100.33,35.38-23.41,73.63-33.67,114.31-12.3,19.83,10.44,33.48,27.14,43.92,46.68,2,3.73,4.81,7.12,6,11,5,15.66,25.2,31.58,13.83,45.9-12.38,15.55-35.23,21.85-55.55,27.66-7.08,2-12.53-.56-15.85-8.16-6-13.68-12.75-27.11-19.5-40.45s-19.31-19.87-32-13.16c-11,5.85-21.55,15.59-13,33,16.33,33.37,30.54,67.78,46.16,101.52,17.9,38.7,36.69,77,54.28,115.76,4.66,10.22,12.6,16.81,21.89,15.85s19.95-3.62,24.27-16c2.09-5.89,1.57-9.32.15-15-5-19.54-15.29-36.61-23.53-54.62-5.85-12.79-7.46-22.41,10.33-27.52,13.12-3.77,25.28-11.18,37.36-17.86,8.87-4.88,16.59-3.24,20.65,4.62,15.1,29.3,31.84,58.57,35.79,91.72C1491.25,1739.48,1459.64,1772.74,1412.73,1790.86Zm337.6-160.69c-17.34,9.51-35.79,17-53.73,25.43-8.65,4.1-12.23-3.17-16.81-7.57-35.46-33.89-70.84-67.89-107.9-103.5-5.93,29.83,15,49.21,22.74,72.67,6.19,18.72,15.73,36.39,24.94,53.91,6.11,11.63,2.5,18.16-8.13,23.15-15.21,7.16-30.42,14.24-45.56,21.59-10,4.88-16.67,2-21.18-7.94q-48.65-106.43-97.46-212.74c-19.57-42.54-40-84.63-59.13-127.36-19.69-44-25.13-35.83,18.38-57.83,36.24-18.31,36.46-18.16,53.73,17.71,15.4,32,30.5,64.24,46.87,98.76,1.72-51.71-1.34-100.63,2-149.47.67-9.54,1.9-16.14,12.71-19.91,14.13-4.88,27.29-12.64,40.83-19.24,15.88-7.79,22.52-3.54,23.26,14.24,2.35,57.94-3.21,115.65-4.06,173.52-.19,12,3.32,20.47,12,28.82,48.13,46,95.63,92.57,143.5,138.81,4.77,4.62,10.55,8.2,15.62,12.56C1763.94,1615.11,1760.81,1624.46,1750.33,1630.17ZM1956,1535.24c-50.85,23.3-101.6,46.9-152.38,70.39-1.64.78-3.21,1.75-4.55,2.5-8.69-2.05-12.45-8-15.88-15.47-28.26-61.74-57-123.3-85.45-184.93-26.21-56.67-52-113.6-78.71-170-8.8-18.6-5.82-23.23,11-30.76,43.29-19.35,86-40,128.81-60.36,26.58-12.68,27.89-12.49,40.94,13.8,4.25,8.57,7,18,12,26.14,9,14.62,2.65,21.07-10.85,26.77-24.91,10.48-49.29,22.22-74,33.26-6.93,3.13-10,6-5.67,14.65,11.56,23,21.85,46.75,32.4,70.32,2.95,6.56,4.77,8.46,13.38,5.52,20.06-6.86,37.62-18.75,57.42-26.06,12-4.47,18.64-2.35,23.53,9.17,5.41,12.75,10.92,25.5,17.56,37.66,6.26,11.45,2.87,18-8.09,23.08-19.69,9-39,18.68-58.87,27.25-6.82,2.95-6.26,6.26-3.88,11.41,11.18,24.57,22.52,49,33.37,73.75,4.59,10.4,9.51,13.09,20.69,7.23,23.53-12.27,48.17-22.26,71.88-34.15,12.71-6.34,20.51-2.42,25.87,9.1,5.82,12.56,10.29,25.76,16.63,38C1968.7,1524.06,1966.84,1530.29,1956,1535.24Zm156.18-71c-16,6.79-32,13.83-47.61,21.62-10.59,5.29-15.88,2.09-20.58-8-36.91-79.49-74.31-158.79-111.29-238.28-9.36-20.1-17.75-40.64-26.66-60.92-3.47-7.83-6.79-13.8-17.41-7s-22.44,11.45-33.93,16.59c-10.89,4.92-19.76,4.44-24.87-8.91s-11.07-26.55-17.41-39.45c-5.15-10.44-2.2-15.88,8.09-20.62q83.55-38.42,166.62-77.88c13.42-6.38,21.55-2.5,27.33,10,1.27,2.72,2.5,5.44,3.77,8.17,20.66,43.47,21,44.33-24,63.64-16.63,7.12-17.34,13.46-10,28.78,35.27,73.6,69.24,147.79,103.42,221.87,10.81,23.45,20.92,47.24,31.43,70.84,1,2.2,2.31,4.21,3.62,6.52C2120.48,1456.5,2118.54,1461.65,2112.21,1464.29Z"/><path class="cls-1" d="M882.72,2155.75c-49.18-106.85-97.87-213.93-147-320.75-24.42-53-49.81-105.55-74.23-158.53q-64.54-140-128.29-280.37c-4.81-10.63-9.47-12.3-20.28-7-38.89,18.79-78,37.25-117.74,54.21-49.33,21-86.42,53.09-101.63,106.11-11,38.4-7.68,75.95,9.17,112.26,54.81,118.3,110,236.45,164.16,355,46.42,101.67,91.72,203.86,141.08,304.16,27.78,56.33,74.6,84.6,137.43,85.56,16.7-.07,32.51-1.23,48.47-7.31,54-20.62,105.14-47.42,157.75-71,11.07-5,6.75-10.78,3.8-17.08C931.18,2259.21,906.61,2207.65,882.72,2155.75Z"/><path class="cls-1" d="M2646,1235.08c-31.47-70.2-65.1-139.44-97-209.46-51.75-113.75-102.68-227.91-157.75-340.14-27.48-56-76.28-79.56-136-84.26-13.83-.89-27.07,2.16-39.63,6.26-57.19,18.64-109.35,48.8-164.42,72.37-8.13,3.47-6.19,8.31-3.24,14.58,24.42,52.2,48.51,104.54,72.78,156.78,32.4,69.79,65.1,139.44,97.31,209.31q86.8,188.41,173.18,377c25.8,56.19,52.57,112,77.21,168.63,6.79,15.62,13,18.79,27.52,10.92,14.2-7.72,29.83-12.75,44-20.58,38.85-21.48,82.47-33.18,117.93-62.08,52.16-42.5,63.27-99.55,50.82-154.2C2697,1328.55,2667.58,1283.21,2646,1235.08Z"/></g></svg>