<svg id="Layer_1" data-name="Layer 1" xmlns="http://www.w3.org/2000/svg" viewBox="0 0 3000 3000"><defs><style>.cls-1{fill:#fff;}</style></defs><title>webIconVideos</title><path id="videos" class="cls-1" d="M2990.66,1225.21c-9.7-129.36-18.47-258.34-39.48-386.56-27-164.5-115.7-278.78-275.67-327.21-101.56-30.71-209.53-32.69-315.05-41.17-144.15-11.59-289.33-17.15-433.67-17.81-310.06-1.32-620.4-13.57-930.37,7C914,465,831.54,461.31,748.73,466.68c-122,7.82-244.2,13.38-365.18,31.37C230.36,520.86,118.62,602.73,68.78,751.49,15.55,910.43,14.89,1078.33,3,1243.58c-6.12,85.92-1,172.6-1,279.63,6.78,88.37-2.26,197.48,6.88,307.14,9.8,118.43,18.94,236.57,40.61,353.31,30.9,165.82,136.42,272.94,284,308.84,166.95,40.61,340.59,34.67,511.21,48.8,85.36,7.07,171.75,6.69,256.92,7.16,281.8,1.51,563.69,10.27,845.77-4.71,152.16-8.2,304.88-7.73,457.22-19.88,82.91-6.69,166.29-10.93,247.22-30,145.37-34.11,241.47-122,282.93-268.61,48.43-170.9,53.8-347.09,60.77-521.76C3001.78,1544.69,3002.63,1385,2990.66,1225.21ZM1199.07,1956.59V1043.75c262.67,151.78,522.61,302,790,456.38C1722.34,1654.26,1463.44,1803.87,1199.07,1956.59Z"/></svg>