<svg id="Layer_1" data-name="Layer 1" xmlns="http://www.w3.org/2000/svg" viewBox="0 0 3000 3000"><defs><style>.cls-1{fill:#fff;}</style></defs><title>webIconMerch</title><path class="cls-1" d="M3000,601.66V631c-4.92,29.18-17.47,55.38-30.74,81.49-69.45,136.66-135.8,274.88-208,410.15-31.52,59-59.24,71.65-124.18,51.63-67.19-20.71-134.8-40-202.2-59.94-32.48-9.63-35.23-7.32-35.26,26.76q-.28,291.49-.09,583,0,480.44,0,960.88c0,102.6-26,128.76-128,128.76q-771.93.05-1543.85,0c-102.68,0-127.16-24.78-127.17-128.68q-.06-766.07,0-1532.14c0-49.15-.24-49.58-46.62-35.45-63.52,19.34-127.48,37.17-190.91,56.81-64.92,20.1-92.93,7.55-124.14-51.61C165,982.67,95.55,840.54,24,699.45,12.89,677.46,5.6,654.64,0,631v-29.3c6.5-33.17,29.53-50.44,58.5-63.54,145-65.53,290.28-130.46,433.19-200.27C647,262,812.19,221.13,980.06,188c43.52-8.58,75.73,15.3,89.78,64.61,15.69,55.08,38.07,106.68,72.31,152.64,86.33,115.89,200.29,177.24,346.33,183.54,209.78,9.05,389.86-142.24,440.16-331.15,16.1-60.48,48.05-78.69,109.21-66.78,116.13,22.61,230.64,51.9,342.2,91,70.89,24.88,137,61.58,205.45,92.6,119.11,54,237.23,110.16,356.46,163.91C2970.58,551.36,2994.76,567.63,3000,601.66Z"/><path class="cls-1" d="M1778.68,242.11c-31.58,117.08-150.52,202.57-278.63,202.6s-246.43-85-278.85-202.6c92.44,22.38,185,32.3,278.75,32.29S1686.28,264.57,1778.68,242.11Z"/><path class="cls-1" d="M3000,601.66V631c-4.92,29.18-17.47,55.38-30.74,81.49-69.45,136.66-135.8,274.88-208,410.15-31.52,59-59.24,71.65-124.18,51.63-67.19-20.71-134.8-40-202.2-59.94-32.48-9.63-35.23-7.32-35.26,26.76q-.28,291.49-.09,583,0,480.44,0,960.88c0,102.6-26,128.76-128,128.76q-771.93.05-1543.85,0c-102.68,0-127.16-24.78-127.17-128.68q-.06-766.07,0-1532.14c0-49.15-.24-49.58-46.62-35.45-63.52,19.34-127.48,37.17-190.91,56.81-64.92,20.1-92.93,7.55-124.14-51.61C165,982.67,95.55,840.54,24,699.45,12.89,677.46,5.6,654.64,0,631v-29.3c6.5-33.17,29.53-50.44,58.5-63.54,145-65.53,290.28-130.46,433.19-200.27C647,262,812.19,221.13,980.06,188c43.52-8.58,75.73,15.3,89.78,64.61,15.69,55.08,38.07,106.68,72.31,152.64,86.33,115.89,200.29,177.24,346.33,183.54,209.78,9.05,389.86-142.24,440.16-331.15,16.1-60.48,48.05-78.69,109.21-66.78,116.13,22.61,230.64,51.9,342.2,91,70.89,24.88,137,61.58,205.45,92.6,119.11,54,237.23,110.16,356.46,163.91C2970.58,551.36,2994.76,567.63,3000,601.66Z"/><path class="cls-1" d="M1778.68,242.11c-31.58,117.08-150.52,202.57-278.63,202.6s-246.43-85-278.85-202.6c92.44,22.38,185,32.3,278.75,32.29S1686.28,264.57,1778.68,242.11Z"/></svg>