<svg id="Layer_1" data-name="Layer 1" xmlns="http://www.w3.org/2000/svg" viewBox="0 0 3000 3000"><defs><style>.cls-1{fill:#fff;}</style></defs><title>webIconBio</title><g id="bio"><path class="cls-1" d="M2998.47,362.94c-8.85-111.05-84.5-171.55-194.22-154.09-48.13,7.64-94.08,22.19-138.09,42.55C2501.27,327.78,2363.67,442,2232,564.44c-54.19,50.43-105.23,104.14-160.28,162.94V154.53c0-55.28-11.52-67.29-65.83-67.29H65.35C12.25,87.24,0,99.48,0,151.74V1684.92c0,9.7.85,19.4,1.33,29-.48,9.7-1.33,19.4-1.33,29V2848c0,52.86,11.88,64.74,64.62,64.74H1824c64,0,128,.12,192,0,40.49-.12,55.53-15.52,55.65-56.62.12-35.89,0-71.65,0-107.54l.73-888.56c-101.84,83.78-209,159.19-332.32,208.41-69.83,27.76-141.36,48.5-217.5,26.79-14.79-4.37-18.55,7.4-25,14.55-69.59,78.08-138.82,156.64-208.29,234.84-6.18,7-10.91,15.88-21.1,19.64-7.76-10.43,2.3-16,6.18-22.19,58.44-90.08,116.88-180.16,176.28-269.51,9.09-13.82,10.79-23.52,3-39-29.82-58.92-27.28-122.33-18.67-184.89,21.58-155.31,82.69-297,153.61-434.88,26.92-52.38,56.25-103.54,85-156.16-1.45-1-3.64-3.39-5.7-3.39q-306.61.18-612.86.73a.67.67,0,0,0-.36-.61c-.12.12-.24.36-.49.61q-238.6-.55-477.08-1c-84.38-.12-168.76-.61-253,.36-17.82.12-24.37-4.49-22.79-22.55,2.43-28.85-11.76-66.32,5.09-84.26,17.1-18.31,54.92-5.58,83.65-5.58q664.69-.55,1329.5.24c22.43.12,34.68-7.27,46.68-25.34,84.26-126.82,178.46-246.11,277.76-361.53,6.91-8,14.31-15.4,26.43-28.37v557.7c2.18.61,4.24,1.33,6.43,1.94,47.89-56.5,96.51-112.51,143.67-169.73q255.33-309.16,510.29-618.92c4.24-5.21,7-20.49,17.21-12,9,7.4-3.76,14.91-8,20.61-208.17,278.61-414.39,558.67-635.53,827.21-10.18,12.49-20.85,24.61-36.13,42.55v-61a9.46,9.46,0,0,0-3.39-1.33c-40.86,48.86-77.11,91.54-112.75,134.57-152,183.56-305.28,366.14-450.89,554.91-3.51,4.61-7.15,9.21-10.55,13.82-17.82,24.25-8.85,51.16,20.12,63,13.22,5.33,14.19-7.64,18.31-12.73,76.38-94,152.88-187.92,227.69-283.09,97.6-124.15,193.62-249.39,290.61-374,5.7-7.27,9.46-17.09,20.13-20.25,7.4,7.27,3.51,16.37,3.51,24.37q.36,205.14.24,410.15c0,11.28,1,22.55,1.46,33.7,28.25-18.43,53.59-40.49,78.68-62.92,180.28-161,332.56-346.74,472.71-542.54,132.15-184.77,247.08-379.48,323.22-594.8C2981.26,562.74,3006.6,465.75,2998.47,362.94ZM1172.38,2412.48c29.82,33.58,53.83,70.8,67.29,114.09,23.52,75.77-3.15,129.36-78.68,154.82-57.23,19.28-117.48,23-177.25,28.73-86.81,8.24-174.1,8.24-257.51,7.15-132.76,1.82-261.39-1.21-388.81-24-121.6-21.82-158.1-94.69-98.81-203.32,58-106.21,145.73-184.65,244.54-251.69,16.61-11.15,31.28-10.06,47.65,2.06,24.85,18.43,50.19,36.74,77.11,51.65,76.62,42.8,154.7,44.37,232.54,2.3a501.79,501.79,0,0,0,51.65-32c56.38-39.89,56.62-40.74,111.9-1C1065.56,2305.54,1122.06,2355.61,1172.38,2412.48ZM521,1739.48c40.37-60.74,94.69-100.75,166.7-115.54,3.15-.12,6.43-.36,9.58-.49,118.21-3.64,204.89,52.5,253.39,164.16,56.74,130.94,29.95,293.15-63.77,386.51-99.42,99.17-246.36,95.29-338.62-10.91-77.23-89-95.17-193.74-74.93-307.22.61-3.64,1.09-7.4,1.45-11.15.24-2.91.61-5.82,1-8.73C489.68,1803.37,501,1769.43,521,1739.48Zm1234.21-850c-14.91,15.88-47.65,4.85-72.5,4.85q-327.16.55-654.57.24c-231.81,0-463.62-.48-695.42.61-24.61.12-31.89-6.3-29.58-30.31,2.67-25.82-8.24-60.86,5-75.65,15.4-17.34,51-5.46,77.84-5.46q670.51-.54,1341.26-1c27.28,0,35.76,7.52,32.86,33.7C1757.11,841.34,1770.08,873.71,1755.17,889.48Zm8.49-430.4c-2.43,20-1.33,40.74-.24,61,.85,15.15-4.37,20.49-19.64,19.88-30.07-1-60.14-.24-90.2-.24H1031.13c-233.75,0-467.37-.36-701.12.61-24.13,0-33-6.06-29.82-30.43,3.51-27.52-12.12-64.5,6.42-80.38,16-13.58,51.65-4.73,78.68-4.73q672-.18,1343.93-.85C1757.6,423.92,1766.93,431.07,1763.66,459.08Z"/><polygon class="cls-1" points="2072.45 1859.51 2073.06 1859.51 2072.45 1858.78 2072.45 1859.51"/></g></svg>