<svg id="Layer_1" data-name="Layer 1" xmlns="http://www.w3.org/2000/svg" viewBox="0 0 3000 3000"><defs><style>.cls-1{fill:#fff;}</style></defs><title>webIconAccueil</title><g id="accueil"><path class="cls-1" d="M2703.28,1783.18q-590.81-589.94-1181-1180.53c-22.19-22.16-22.19-22.16-44.36,0Q887,1193.53,295.82,1784.28c-12.89,12.86-18.58,25.93-18.55,44.33.46,318.35,1,636.73-.21,955.09-.21,62.33,43.78,137.79,120.92,146H1735.8c7.16-8.91,4.9-19.5,4.9-29.48q.18-528,.12-1056.08c0-6.12.18-12.25.06-18.37-.21-10.32,4.59-15,14.85-14.54,4.56.18,9.18-.06,13.78-.06h492.82c28.65,0,28.68,0,28.68,28.38q0,371.91,0,743.85,0,159.94.06,319.88c0,9-1.65,18.55,4.93,26.42h300c14.79-3,30.09-2.54,44.18-9.83,53.42-27.74,82-71.64,82.08-131.49.52-319.39.09-638.79.61-958.15C2722.94,1810.7,2717,1796.86,2703.28,1783.18ZM1266.15,2351.46c0,12.46-2.63,16.1-15.67,16-88.72-.64-177.47-.34-266.22-.34s-177.5-.28-266.25.31c-12.21.09-14.85-3.31-14.82-15.06q.55-266.25-.09-532.5c0-13.47,4.13-15.37,16.23-15.34q264.69.55,529.4-.09c14.14,0,17.48,3.7,17.45,17.57Q1265.45,2086.76,1266.15,2351.46Z"/><path class="cls-1" d="M1521.5,70.34c47.07,9,78.41,41.07,110.44,73.24q253.79,254.86,508.42,508.89c4.22,4.22,7.37,9.52,11.25,14.62,6.62-6.85,4.45-12.16,4.5-16.84.39-39.28-1.4-78.67,1.08-117.81,5-78.42,68.15-136.37,143-133.69,78.13,2.8,136.65,63.46,136.91,143.27q.63,195.14-.14,390.29c0,12.09,3.09,20.61,11.84,29.33q252,251.21,503.53,503c27.74,27.7,45.87,59.71,47.53,99.47a140.46,140.46,0,0,1-83.12,134.65c-54.16,24.14-114.77,12.36-158.88-31.67Q2528.76,1438.39,2300,1209.4q-394-393.88-787.73-788c-10.47-10.49-15.22-8.51-24.42.69Q867.36,1043,246.46,1663.42c-55.07,55.06-129.73,63.32-188.29,20.34-30.83-22.63-50.41-52.68-55.59-91.22-2.71-5,1-11.11-2.58-16v-12.25c3.18-4.61.87-9.82,1.58-14.69-1.9-35.3,18.37-60.32,39.45-84.94,2.65-3.09,5.69-5.84,8.58-8.73Q714.82,790.71,1380.12,125.58c14.74-14.73,30.4-28.51,48.3-39.66a90.29,90.29,0,0,1,50.73-14c4.91-.71,10.15,1.6,14.8-1.58Z"/></g></svg>