<svg id="Layer_1" data-name="Layer 1" xmlns="http://www.w3.org/2000/svg" viewBox="0 0 3000 3000"><defs><style>.cls-1{fill:#fff;}</style></defs><title>webIconContact</title><path id="contact" class="cls-1" d="M2956.9,1173.77c-1.32-54.7-5.08-108.83-14.94-162.7-27.46-150-77-291.83-155.57-422.82-53.54-89.2-118.9-168.92-194.2-241-89.27-85.47-189.12-155.2-299.27-210.37C2192.52,86.57,2086.81,50.82,1977,27.52,1913.7,14.05,1850.15,2,1784.79,2.45c-18.52.12-37.53,1.65-56.05-2.45h-15.31c-5.88,3.31-12.28.77-18.4,1.59-6.09-.83-12.46,1.71-18.34-1.59h-3.06c-7.29,3.34-15,.8-22.47,1.59-8.54,0-17.08,0-25.62,0-7.41-.8-15.09,1.75-22.32-1.59h-24.49a61,61,0,0,1-30.61,0h-24.49a6.52,6.52,0,0,1-4.13,1.56c-88,3-174.18,18.37-259.71,38.11A1543.23,1543.23,0,0,0,831.56,208.41C735.37,264.06,645.8,328.9,564.65,404.6c-52.5,49-102.92,100.32-148.41,156.28C318.77,680.76,238.9,811.13,178.57,953.39a1759.69,1759.69,0,0,0-98,305.48c-15.52,69.73-27.21,140.08-33.89,211.26-2.27,24.21-.64,48.64-4.68,72.73v15.31a7,7,0,0,1,0,9.18v18.37c3.49,9.46.7,19.26,1.59,28.84,0,14.42,0,28.84,0,43.26-.77,8.6,1.65,17.42-1.59,25.87V1702a11.12,11.12,0,0,1,0,12.24v15.31c2.88,3.61,1.38,7.84,1.53,11.79,1.29,34.1,3.12,68.17,7.68,102,14.11,104.48,38.05,206.63,73.93,305.82,34,93.89,77.14,183.24,131.94,266.82q94,143.49,223.65,256a1310.82,1310.82,0,0,0,239.57,166.29,1339.83,1339.83,0,0,0,342.77,128.76c59.76,13.47,120,23.36,181.16,28.22,25.78,2.05,51.7,1.07,77.36,4.71h27.55a23.34,23.34,0,0,1,18.37,0h6.12c6.58-3.18,13.62-.83,20.39-1.59,16,0,32.08,0,48.12,0,6.73.77,13.71-1.59,20.27,1.59h18.37c3.73-3,8.11-1,12.15-1.59q3.17,0,6.34,0c4,.61,8.39-1.41,12.12,1.59h9.18c13.93-3.7,28.38-2.36,42.4-2.63,78.34-1.53,155.3-14,232.1-27.64,141.52-25.16,276.89-69.89,406-132.8,84.92-41.39,96.18-161.6,22.35-221.05-46.84-37.68-96.95-37.84-149.3-13.44-31,14.45-62.33,28.22-94.56,39.52-159.77,55.9-324.21,84.58-493.65,84.77-34.71,0-69.24-3.37-103.9-3.09-21.52.18-42.86-1.9-64-4.32A1253.45,1253.45,0,0,1,1103.79,2676c-185.11-54.8-343.41-151.56-470.45-297.86-102.95-118.56-170.69-255.64-211.78-406.35-23.11-84.83-37.78-171.12-42.37-259.19-4.26-81.58-4.22-163.1,1.47-244.47a1423,1423,0,0,1,32.88-220.68c29.39-127.59,74.82-249,139.07-363.15,44.69-79.38,97.13-153.21,158.27-221,69.77-77.36,147.73-144.83,234.86-201.86,93.7-61.29,194.05-108,301.07-141,99.55-30.73,201.46-47.75,305.17-52.41a1322.37,1322.37,0,0,1,191,4.93c71.23,7.07,141.52,18.43,210.46,37.81,112,31.5,216.67,78.73,310.1,148.68,47,35.2,88.16,77,128.85,119.3,56.17,58.41,99.92,125,135.46,197.2a981.65,981.65,0,0,1,69.7,189.28c16.56,64.32,30.64,129.46,32.45,195.86,1.81,64.62,2.11,129.4-1.65,194.2-3.7,64.32-9.61,128.05-24.95,190.68-28.26,115.35-72.06,223.41-150.83,314.3-55.87,64.41-124.16,108.21-210.24,120.89-50.23,7.38-96.09-15.95-119.85-60.92-19.78-37.38-23.6-77.76-23.3-118.78.4-52.59,7.1-104.76,14.48-156.7,26.14-183.83,57.89-366.77,86.45-550.22,13.71-88.16,29.51-176,38.51-264.89,2.05-20.11.64-23.39-17.48-32.33-29.85-14.72-61.5-24.7-93.21-34.41-124.59-38.14-251.63-60.61-382.32-59.94-30.61.15-61.1,1.1-91.68,2.66-31.59,1.62-63.15,3.4-94.32,8.33-118.35,18.7-230.94,54-336.37,112.35C1109,889.47,1010.7,971.36,931.45,1074.34c-151.62,197-219.92,421.56-214.29,669.52a681.14,681.14,0,0,0,24.4,167.6c34,122.14,98.33,223.38,207.09,292.75,50.91,32.45,105.83,55.32,166,63.28,38,5,76.44,1.47,114.67,1.81,22.9.18,45.83,1.19,68.79-1.32,48.67-5.36,94.62-20.33,139.62-38.6,92.48-37.56,170.51-95.17,236.14-170.17,27.92-31.9,55.19-64.19,77.2-100.59,2.48-4.13,5.23-9.86,11.51-7.93,4.5,1.38,4.44,6.49,4.59,10.53,1.41,34.16,12.34,66.18,23.85,97.75,34,93.4,98,157.13,192.18,190,81.49,28.41,165.7,29.79,249.58,19.22,203-25.56,367.35-122.36,497.17-279,83.63-100.93,138.89-216.86,176.23-341.79,26.39-88.25,45.37-178.13,49.38-270.24C2958.5,1309.44,2958.56,1241.6,2956.9,1173.77ZM1787.12,1074c-4.41,53.33-11.69,106.35-19.13,159.34-13.5,96.31-25.19,193.07-45.73,288.12-31,143.45-99.24,265.5-218.48,354.92-57.28,42.92-122.82,56.51-192.52,41.6-80.91-17.33-140.11-81.25-150.73-172.35-28.07-240.83,38.42-447.89,231.12-604.53,78.37-63.7,169.84-94.93,279-94.47,30.4-.21,67.65,4.93,104.76,12.18C1784.95,1060.65,1787.91,1064.39,1787.12,1074Z"/></svg>